<svg xmlns="http://www.w3.org/2000/svg" viewBox="0 0 32 32" aria-hidden="true" role="presentation" focusable="false" style="display: block; height: 24px; width: 24px; fill: currentcolor;"><path d="m10.66 9.74-8.23 1-.15.02a2 2 0 0 0-.93 3.47l6.2 5.46-2 8.52-.03.15a2 2 0 0 0 2.96 2.05L16 26.15l7.52 4.26.13.07a2 2 0 0 0 2.8-2.27l-2-8.52 6.2-5.46.11-.11a2 2 0 0 0-1.19-3.38l-8.23-1-3.53-7.55a2 2 0 0 0-3.62 0zM12 11.59l4-8.56 4 8.56 9.33 1.13-7.1 6.26 2.27 9.69-8.5-4.82-8.5 4.82 2.28-9.7-7.11-6.25z"></path></svg>